<svg width="492" height="36" viewBox="0 0 492 36" fill="none" xmlns="http://www.w3.org/2000/svg">
<circle cx="18" cy="18" r="17.5" stroke="black"/>
<circle cx="259" cy="18" r="17.5" stroke="black"/>
<circle cx="475" cy="18" r="17" fill="#D9D9D9"/>
<path d="M20.4043 22.8C20.4043 23.0267 20.4976 23.2 20.6843 23.32C20.871 23.44 21.131 23.5267 21.4643 23.58C21.7976 23.62 22.1843 23.64 22.6243 23.64H23.1443V25H13.9243V23.64H14.6843C15.0976 23.64 15.4643 23.62 15.7843 23.58C16.1043 23.5267 16.3576 23.44 16.5443 23.32C16.731 23.2 16.8243 23.0267 16.8243 22.8V14.6L17.2043 14.42C17.0976 14.78 16.931 15.0867 16.7043 15.34C16.4776 15.5933 16.2043 15.8 15.8843 15.96C15.5776 16.1067 15.2243 16.2133 14.8243 16.28C14.4243 16.3467 13.9976 16.38 13.5443 16.38V14.36C14.0776 14.3467 14.551 14.3067 14.9643 14.24C15.3776 14.1733 15.7376 14.0733 16.0443 13.94C16.351 13.8067 16.6176 13.6467 16.8443 13.46C17.0843 13.2733 17.291 13.06 17.4643 12.82H20.4043V22.8Z" fill="black"/>
<path d="M260.364 22.5H255.764C255.764 22.54 255.758 22.6067 255.744 22.7C255.744 22.78 255.758 22.8533 255.784 22.92C255.811 22.9733 255.871 22.9933 255.964 22.98C256.684 22.6733 257.418 22.3467 258.164 22C258.924 21.64 259.651 21.2533 260.344 20.84C261.038 20.4267 261.658 19.9867 262.204 19.52C262.751 19.04 263.184 18.5267 263.504 17.98C263.824 17.4333 263.984 16.84 263.984 16.2C263.984 15.4533 263.804 14.8133 263.444 14.28C263.084 13.7467 262.551 13.34 261.844 13.06C261.151 12.78 260.298 12.64 259.284 12.64C258.564 12.64 257.904 12.72 257.304 12.88C256.704 13.04 256.184 13.2467 255.744 13.5C255.304 13.7533 254.951 14.0133 254.684 14.28V16.64H257.444V14.26C257.298 14.2733 257.178 14.3267 257.084 14.42C257.004 14.5133 256.938 14.6267 256.884 14.76C256.844 14.88 256.811 15.0067 256.784 15.14C256.771 15.26 256.771 15.36 256.784 15.44C256.931 15.2267 257.104 15.0333 257.304 14.86C257.504 14.6733 257.738 14.5267 258.004 14.42C258.271 14.3133 258.564 14.26 258.884 14.26C259.244 14.26 259.538 14.3267 259.764 14.46C260.004 14.5933 260.184 14.8 260.304 15.08C260.438 15.36 260.504 15.7267 260.504 16.18C260.504 16.7267 260.398 17.2267 260.184 17.68C259.984 18.1333 259.698 18.56 259.324 18.96C258.951 19.3467 258.511 19.72 258.004 20.08C257.511 20.4267 256.964 20.7733 256.364 21.12C255.764 21.4667 255.138 21.8267 254.484 22.2V25H264.344V20.56H262.784L262.624 21.7C262.584 21.94 262.484 22.12 262.324 22.24C262.178 22.3467 261.944 22.42 261.624 22.46C261.304 22.4867 260.884 22.5 260.364 22.5Z" fill="black"/>
<path d="M474.804 19.12L475.504 19.64V18.88L474.444 19.44C475.524 19.44 476.498 19.3133 477.364 19.06C478.244 18.7933 478.944 18.4067 479.464 17.9C479.984 17.38 480.244 16.7333 480.244 15.96C480.244 15.2133 480.031 14.6 479.604 14.12C479.191 13.6267 478.631 13.26 477.924 13.02C477.218 12.7667 476.431 12.64 475.564 12.64C474.858 12.64 474.211 12.72 473.624 12.88C473.038 13.04 472.524 13.2467 472.084 13.5C471.658 13.74 471.318 13.9933 471.064 14.26V16.48H473.824V14.22C473.678 14.2333 473.558 14.2933 473.464 14.4C473.384 14.4933 473.318 14.6 473.264 14.72C473.224 14.84 473.191 14.9667 473.164 15.1C473.151 15.22 473.151 15.32 473.164 15.4C473.364 15.08 473.638 14.8133 473.984 14.6C474.331 14.3733 474.758 14.26 475.264 14.26C475.584 14.26 475.864 14.32 476.104 14.44C476.358 14.56 476.551 14.7533 476.684 15.02C476.831 15.2867 476.904 15.64 476.904 16.08C476.904 16.64 476.804 17.1067 476.604 17.48C476.418 17.84 476.124 18.1133 475.724 18.3C475.338 18.4733 474.838 18.56 474.224 18.56H473.364V20.1H474.464C475.184 20.1 475.744 20.2067 476.144 20.42C476.544 20.6333 476.824 20.9333 476.984 21.32C477.144 21.6933 477.224 22.1267 477.224 22.62C477.224 23.1667 477.131 23.6267 476.944 24C476.758 24.36 476.491 24.64 476.144 24.84C475.811 25.0267 475.404 25.12 474.924 25.12C474.471 25.12 474.071 25.04 473.724 24.88C473.378 24.72 473.078 24.5133 472.824 24.26C472.571 23.9933 472.358 23.7133 472.184 23.42C472.024 23.1267 471.878 22.8467 471.744 22.58L470.224 23.54C470.464 24.14 470.798 24.6867 471.224 25.18C471.651 25.6733 472.204 26.0667 472.884 26.36C473.578 26.6533 474.418 26.8 475.404 26.8C476.404 26.8 477.298 26.64 478.084 26.32C478.871 26.0133 479.498 25.56 479.964 24.96C480.431 24.3467 480.664 23.6067 480.664 22.74C480.664 22.1933 480.558 21.7 480.344 21.26C480.131 20.8067 479.791 20.4267 479.324 20.12C478.858 19.8 478.251 19.5533 477.504 19.38C476.771 19.2067 475.871 19.12 474.804 19.12Z" fill="black"/>
<line x1="35" y1="16.5" x2="242" y2="16.5" stroke="#0B06FF" stroke-opacity="0.42" stroke-width="3"/>
<line x1="276" y1="16.5" x2="456" y2="16.5" stroke="#0B06FF" stroke-opacity="0.42" stroke-width="3"/>
</svg>
