<svg width="493" height="36" viewBox="0 0 493 36" fill="none" xmlns="http://www.w3.org/2000/svg">
<circle cx="18" cy="18" r="17.5" stroke="black"/>
<circle cx="259" cy="18" r="17.5" stroke="black"/>
<circle cx="475" cy="18" r="17.5" stroke="black"/>
<line x1="35" y1="16.5" x2="242" y2="16.5" stroke="#0B06FF" stroke-opacity="0.42" stroke-width="3"/>
<line x1="276" y1="16.5" x2="456" y2="16.5" stroke="#0B06FF" stroke-opacity="0.42" stroke-width="3"/>
<path d="M20.4043 22.8C20.4043 23.0267 20.4976 23.2 20.6843 23.32C20.871 23.44 21.131 23.5267 21.4643 23.58C21.7976 23.62 22.1843 23.64 22.6243 23.64H23.1443V25H13.9243V23.64H14.6843C15.0976 23.64 15.4643 23.62 15.7843 23.58C16.1043 23.5267 16.3576 23.44 16.5443 23.32C16.731 23.2 16.8243 23.0267 16.8243 22.8V14.6L17.2043 14.42C17.0976 14.78 16.931 15.0867 16.7043 15.34C16.4776 15.5933 16.2043 15.8 15.8843 15.96C15.5776 16.1067 15.2243 16.2133 14.8243 16.28C14.4243 16.3467 13.9976 16.38 13.5443 16.38V14.36C14.0776 14.3467 14.551 14.3067 14.9643 14.24C15.3776 14.1733 15.7376 14.0733 16.0443 13.94C16.351 13.8067 16.6176 13.6467 16.8443 13.46C17.0843 13.2733 17.291 13.06 17.4643 12.82H20.4043V22.8Z" fill="black"/>
<path d="M259.864 22.5H255.264C255.264 22.54 255.258 22.6067 255.244 22.7C255.244 22.78 255.258 22.8533 255.284 22.92C255.311 22.9733 255.371 22.9933 255.464 22.98C256.184 22.6733 256.918 22.3467 257.664 22C258.424 21.64 259.151 21.2533 259.844 20.84C260.538 20.4267 261.158 19.9867 261.704 19.52C262.251 19.04 262.684 18.5267 263.004 17.98C263.324 17.4333 263.484 16.84 263.484 16.2C263.484 15.4533 263.304 14.8133 262.944 14.28C262.584 13.7467 262.051 13.34 261.344 13.06C260.651 12.78 259.798 12.64 258.784 12.64C258.064 12.64 257.404 12.72 256.804 12.88C256.204 13.04 255.684 13.2467 255.244 13.5C254.804 13.7533 254.451 14.0133 254.184 14.28V16.64H256.944V14.26C256.798 14.2733 256.678 14.3267 256.584 14.42C256.504 14.5133 256.438 14.6267 256.384 14.76C256.344 14.88 256.311 15.0067 256.284 15.14C256.271 15.26 256.271 15.36 256.284 15.44C256.431 15.2267 256.604 15.0333 256.804 14.86C257.004 14.6733 257.238 14.5267 257.504 14.42C257.771 14.3133 258.064 14.26 258.384 14.26C258.744 14.26 259.038 14.3267 259.264 14.46C259.504 14.5933 259.684 14.8 259.804 15.08C259.938 15.36 260.004 15.7267 260.004 16.18C260.004 16.7267 259.898 17.2267 259.684 17.68C259.484 18.1333 259.198 18.56 258.824 18.96C258.451 19.3467 258.011 19.72 257.504 20.08C257.011 20.4267 256.464 20.7733 255.864 21.12C255.264 21.4667 254.638 21.8267 253.984 22.2V25H263.844V20.56H262.284L262.124 21.7C262.084 21.94 261.984 22.12 261.824 22.24C261.678 22.3467 261.444 22.42 261.124 22.46C260.804 22.4867 260.384 22.5 259.864 22.5Z" fill="black"/>
<path d="M473.304 19.12L474.004 19.64V18.88L472.944 19.44C474.024 19.44 474.998 19.3133 475.864 19.06C476.744 18.7933 477.444 18.4067 477.964 17.9C478.484 17.38 478.744 16.7333 478.744 15.96C478.744 15.2133 478.531 14.6 478.104 14.12C477.691 13.6267 477.131 13.26 476.424 13.02C475.718 12.7667 474.931 12.64 474.064 12.64C473.358 12.64 472.711 12.72 472.124 12.88C471.538 13.04 471.024 13.2467 470.584 13.5C470.158 13.74 469.818 13.9933 469.564 14.26V16.48H472.324V14.22C472.178 14.2333 472.058 14.2933 471.964 14.4C471.884 14.4933 471.818 14.6 471.764 14.72C471.724 14.84 471.691 14.9667 471.664 15.1C471.651 15.22 471.651 15.32 471.664 15.4C471.864 15.08 472.138 14.8133 472.484 14.6C472.831 14.3733 473.258 14.26 473.764 14.26C474.084 14.26 474.364 14.32 474.604 14.44C474.858 14.56 475.051 14.7533 475.184 15.02C475.331 15.2867 475.404 15.64 475.404 16.08C475.404 16.64 475.304 17.1067 475.104 17.48C474.918 17.84 474.624 18.1133 474.224 18.3C473.838 18.4733 473.338 18.56 472.724 18.56H471.864V20.1H472.964C473.684 20.1 474.244 20.2067 474.644 20.42C475.044 20.6333 475.324 20.9333 475.484 21.32C475.644 21.6933 475.724 22.1267 475.724 22.62C475.724 23.1667 475.631 23.6267 475.444 24C475.258 24.36 474.991 24.64 474.644 24.84C474.311 25.0267 473.904 25.12 473.424 25.12C472.971 25.12 472.571 25.04 472.224 24.88C471.878 24.72 471.578 24.5133 471.324 24.26C471.071 23.9933 470.858 23.7133 470.684 23.42C470.524 23.1267 470.378 22.8467 470.244 22.58L468.724 23.54C468.964 24.14 469.298 24.6867 469.724 25.18C470.151 25.6733 470.704 26.0667 471.384 26.36C472.078 26.6533 472.918 26.8 473.904 26.8C474.904 26.8 475.798 26.64 476.584 26.32C477.371 26.0133 477.998 25.56 478.464 24.96C478.931 24.3467 479.164 23.6067 479.164 22.74C479.164 22.1933 479.058 21.7 478.844 21.26C478.631 20.8067 478.291 20.4267 477.824 20.12C477.358 19.8 476.751 19.5533 476.004 19.38C475.271 19.2067 474.371 19.12 473.304 19.12Z" fill="black"/>
</svg>
