<svg width="489" height="34" viewBox="0 0 489 34" fill="none" xmlns="http://www.w3.org/2000/svg">
<circle cx="17" cy="17" r="16.5" stroke="black"/>
<circle cx="258" cy="17" r="17" fill="#D9D9D9"/>
<circle cx="472" cy="17" r="17" fill="#D9D9D9"/>
<line x1="34" y1="15.5" x2="241" y2="15.5" stroke="#0B06FF" stroke-opacity="0.42" stroke-width="3"/>
<line x1="275" y1="15.5" x2="455" y2="15.5" stroke="#0B06FF" stroke-opacity="0.42" stroke-width="3"/>
<path d="M19.9043 21.8C19.9043 22.0267 19.9976 22.2 20.1843 22.32C20.371 22.44 20.631 22.5267 20.9643 22.58C21.2976 22.62 21.6843 22.64 22.1243 22.64H22.6443V24H13.4243V22.64H14.1843C14.5976 22.64 14.9643 22.62 15.2843 22.58C15.6043 22.5267 15.8576 22.44 16.0443 22.32C16.231 22.2 16.3243 22.0267 16.3243 21.8V13.6L16.7043 13.42C16.5976 13.78 16.431 14.0867 16.2043 14.34C15.9776 14.5933 15.7043 14.8 15.3843 14.96C15.0776 15.1067 14.7243 15.2133 14.3243 15.28C13.9243 15.3467 13.4976 15.38 13.0443 15.38V13.36C13.5776 13.3467 14.051 13.3067 14.4643 13.24C14.8776 13.1733 15.2376 13.0733 15.5443 12.94C15.851 12.8067 16.1176 12.6467 16.3443 12.46C16.5843 12.2733 16.791 12.06 16.9643 11.82H19.9043V21.8Z" fill="black"/>
<path d="M259.364 21.5H254.764C254.764 21.54 254.758 21.6067 254.744 21.7C254.744 21.78 254.758 21.8533 254.784 21.92C254.811 21.9733 254.871 21.9933 254.964 21.98C255.684 21.6733 256.418 21.3467 257.164 21C257.924 20.64 258.651 20.2533 259.344 19.84C260.038 19.4267 260.658 18.9867 261.204 18.52C261.751 18.04 262.184 17.5267 262.504 16.98C262.824 16.4333 262.984 15.84 262.984 15.2C262.984 14.4533 262.804 13.8133 262.444 13.28C262.084 12.7467 261.551 12.34 260.844 12.06C260.151 11.78 259.298 11.64 258.284 11.64C257.564 11.64 256.904 11.72 256.304 11.88C255.704 12.04 255.184 12.2467 254.744 12.5C254.304 12.7533 253.951 13.0133 253.684 13.28V15.64H256.444V13.26C256.298 13.2733 256.178 13.3267 256.084 13.42C256.004 13.5133 255.938 13.6267 255.884 13.76C255.844 13.88 255.811 14.0067 255.784 14.14C255.771 14.26 255.771 14.36 255.784 14.44C255.931 14.2267 256.104 14.0333 256.304 13.86C256.504 13.6733 256.738 13.5267 257.004 13.42C257.271 13.3133 257.564 13.26 257.884 13.26C258.244 13.26 258.538 13.3267 258.764 13.46C259.004 13.5933 259.184 13.8 259.304 14.08C259.438 14.36 259.504 14.7267 259.504 15.18C259.504 15.7267 259.398 16.2267 259.184 16.68C258.984 17.1333 258.698 17.56 258.324 17.96C257.951 18.3467 257.511 18.72 257.004 19.08C256.511 19.4267 255.964 19.7733 255.364 20.12C254.764 20.4667 254.138 20.8267 253.484 21.2V24H263.344V19.56H261.784L261.624 20.7C261.584 20.94 261.484 21.12 261.324 21.24C261.178 21.3467 260.944 21.42 260.624 21.46C260.304 21.4867 259.884 21.5 259.364 21.5Z" fill="black"/>
<path d="M470.804 18.12L471.504 18.64V17.88L470.444 18.44C471.524 18.44 472.498 18.3133 473.364 18.06C474.244 17.7933 474.944 17.4067 475.464 16.9C475.984 16.38 476.244 15.7333 476.244 14.96C476.244 14.2133 476.031 13.6 475.604 13.12C475.191 12.6267 474.631 12.26 473.924 12.02C473.218 11.7667 472.431 11.64 471.564 11.64C470.858 11.64 470.211 11.72 469.624 11.88C469.038 12.04 468.524 12.2467 468.084 12.5C467.658 12.74 467.318 12.9933 467.064 13.26V15.48H469.824V13.22C469.678 13.2333 469.558 13.2933 469.464 13.4C469.384 13.4933 469.318 13.6 469.264 13.72C469.224 13.84 469.191 13.9667 469.164 14.1C469.151 14.22 469.151 14.32 469.164 14.4C469.364 14.08 469.638 13.8133 469.984 13.6C470.331 13.3733 470.758 13.26 471.264 13.26C471.584 13.26 471.864 13.32 472.104 13.44C472.358 13.56 472.551 13.7533 472.684 14.02C472.831 14.2867 472.904 14.64 472.904 15.08C472.904 15.64 472.804 16.1067 472.604 16.48C472.418 16.84 472.124 17.1133 471.724 17.3C471.338 17.4733 470.838 17.56 470.224 17.56H469.364V19.1H470.464C471.184 19.1 471.744 19.2067 472.144 19.42C472.544 19.6333 472.824 19.9333 472.984 20.32C473.144 20.6933 473.224 21.1267 473.224 21.62C473.224 22.1667 473.131 22.6267 472.944 23C472.758 23.36 472.491 23.64 472.144 23.84C471.811 24.0267 471.404 24.12 470.924 24.12C470.471 24.12 470.071 24.04 469.724 23.88C469.378 23.72 469.078 23.5133 468.824 23.26C468.571 22.9933 468.358 22.7133 468.184 22.42C468.024 22.1267 467.878 21.8467 467.744 21.58L466.224 22.54C466.464 23.14 466.798 23.6867 467.224 24.18C467.651 24.6733 468.204 25.0667 468.884 25.36C469.578 25.6533 470.418 25.8 471.404 25.8C472.404 25.8 473.298 25.64 474.084 25.32C474.871 25.0133 475.498 24.56 475.964 23.96C476.431 23.3467 476.664 22.6067 476.664 21.74C476.664 21.1933 476.558 20.7 476.344 20.26C476.131 19.8067 475.791 19.4267 475.324 19.12C474.858 18.8 474.251 18.5533 473.504 18.38C472.771 18.2067 471.871 18.12 470.804 18.12Z" fill="black"/>
</svg>
